<svg xmlns="http://www.w3.org/2000/svg" width="34.05" height="41.419" viewBox="0 0 34.05 41.419">
    <defs>
        <style>
            .cls-1,.cls-2,.cls-3{fill:#383838}.cls-1,.cls-3{stroke:#383838;stroke-linecap:round;stroke-linejoin:round}.cls-1{stroke-width:.5px}
        </style>
    </defs>
    <g id="seller" transform="translate(-2.417 .5)">
        <path id="Path_10" d="M13.624 14.748s-4.032.054-4.032 3.763v4.569h7.875zm-3.4 3.763A3.075 3.075 0 0 1 13.23 15.4l3.25 7.047h-6.256z" class="cls-1" data-name="Path 10" transform="translate(1.56 3.88)"/>
        <path id="Path_11" d="M19.969 14.748l-3.844 8.331H24v-4.568c0-3.711-4.031-3.763-4.031-3.763zm3.4 7.7h-6.258l3.246-7.037a3.1 3.1 0 0 1 3.01 3.1v3.937z" class="cls-1" data-name="Path 11" transform="translate(3.677 3.88)"/>
        <path id="Path_12" d="M13.928 14.908l2.586 5.724 2.586-5.724h-5.172zm2.587 4.19l-1.608-3.559h3.216z" class="cls-1" data-name="Path 12" transform="translate(2.897 3.721)"/>
        <path id="Path_13" d="M16.265 13.069a4.523 4.523 0 0 1-2.121-.561L13.76 14a5.143 5.143 0 0 0 2.173.549v1.214h1.252v-1.3a2.451 2.451 0 0 0 2.274-2.363c0-1.149-.613-1.853-2.133-2.39-1.086-.409-1.533-.677-1.533-1.1 0-.357.268-.715 1.1-.715a4.228 4.228 0 0 1 1.84.435l.37-1.445a4.587 4.587 0 0 0-1.853-.423V5.339H16v1.214a2.362 2.362 0 0 0-2.16 2.275c0 1.239.932 1.878 2.3 2.339.945.32 1.354.625 1.354 1.112-.002.51-.5.79-1.229.79z" class="cls-2" data-name="Path 13" transform="translate(2.853 1.405)"/>
        <path id="Path_14" d="M19.442 0C15.164 4.5 8.938 5.2 5.477 5.2a19.981 19.981 0 0 1-2.56-.143v17.679c0 10.42 16.525 17.683 16.525 17.683s16.525-7.263 16.525-17.683V5.052a20.015 20.015 0 0 1-2.562.143C29.946 5.2 23.72 4.5 19.442 0zm15.893 22.736c0 9.2-13.833 16.024-15.893 16.989-2.06-.964-15.893-7.786-15.893-16.989V5.752c.46.037 1.12.075 1.93.075C8.832 5.827 15 5.172 19.443.9c4.44 4.277 10.611 4.931 13.965 4.931.808 0 1.47-.037 1.93-.075v16.98z" class="cls-3" data-name="Path 14"/>
        <path id="Rectangle_4" d="M0 0h9.186v.632H0z" class="cls-1" data-name="Rectangle 4" transform="translate(14.848 30.663)"/>
    </g>
</svg>
